<svg xmlns="http://www.w3.org/2000/svg" xmlns:xlink="http://www.w3.org/1999/xlink" version="1.1" width="256" height="256" viewBox="0 0 256 256" xml:space="preserve">
<desc>Created with Fabric.js 1.7.22</desc>
<defs>
</defs>
<g transform="translate(128 128) scale(0.72 0.72)" style="">
	<g style="stroke: none; stroke-width: 0; stroke-dasharray: none; stroke-linecap: butt; stroke-linejoin: miter; stroke-miterlimit: 10; fill: none; fill-rule: nonzero; opacity: 1;" transform="translate(-175.05 -175.05000000000004) scale(3.89 3.89)" >
	<path d="M 89.578 78.76 l -42 -70.588 C 47.037 7.263 46.058 6.706 45 6.706 s -2.037 0.557 -2.578 1.466 l -42 70.588 c -0.552 0.928 -0.563 2.079 -0.03 3.017 C 0.925 82.715 1.921 83.294 3 83.294 h 84 c 1.079 0 2.074 -0.579 2.607 -1.518 C 90.142 80.839 90.13 79.688 89.578 78.76 z M 47.416 73.272 c -0.16 0.16 -0.331 0.308 -0.524 0.422 c -0.182 0.126 -0.376 0.239 -0.582 0.319 c -0.205 0.091 -0.421 0.148 -0.638 0.194 c -0.228 0.046 -0.445 0.068 -0.672 0.068 c -0.9 0 -1.778 -0.364 -2.416 -1.003 c -0.638 -0.638 -1.003 -1.516 -1.003 -2.416 c 0 -0.228 0.023 -0.444 0.068 -0.672 c 0.045 -0.216 0.102 -0.433 0.194 -0.638 c 0.08 -0.206 0.194 -0.4 0.319 -0.593 c 0.114 -0.183 0.262 -0.353 0.422 -0.513 c 0.16 -0.159 0.331 -0.296 0.512 -0.421 c 0.194 -0.126 0.388 -0.24 0.593 -0.319 c 0.205 -0.08 0.422 -0.148 0.638 -0.194 c 1.117 -0.228 2.291 0.137 3.089 0.934 c 0.638 0.639 1.003 1.516 1.003 2.416 S 48.054 72.634 47.416 73.272 z M 48.419 60.247 c 0 1.888 -1.53 3.419 -3.419 3.419 c -1.888 0 -3.419 -1.53 -3.419 -3.419 V 32.693 c 0 -1.888 1.531 -3.419 3.419 -3.419 c 1.888 0 3.419 1.531 3.419 3.419 V 60.247 z" style="stroke: none; stroke-width: 1; stroke-dasharray: none; stroke-linecap: butt; stroke-linejoin: miter; stroke-miterlimit: 10; fill: rgb(0,0,0); fill-rule: nonzero; opacity: 1;" transform=" matrix(1 0 0 1 0 0) " stroke-linecap="round" />
</g>
</g>
</svg>